<svg width="0" height="0" class="hidden">
  <symbol fill="none" xmlns="http://www.w3.org/2000/svg" viewBox="0 0 32 32" id="icon cool-icon-n2">
    <g clip-path="url(#clip0_2696_408)">
      <g clip-path="url(#clip1_2696_408)">
        <path d="M1.71484 19.9999C1.71484 20.3155 1.9707 20.5714 2.28627 20.5714H29.7148C30.0304 20.5714 30.2863 20.3155 30.2863 19.9999V2.28564H1.71484V19.9999Z" fill="#E74040"></path>
        <path d="M31.4286 0H0.571429C0.255859 0 0 0.255859 0 0.571429C0 0.886998 0.255859 1.14286 0.571429 1.14286H31.4286C31.7441 1.14286 32 0.886998 32 0.571429C32 0.255859 31.7441 0 31.4286 0Z" fill="#E74040"></path>
        <path d="M20.572 29.7144H16.572V22.8572H17.1434C17.459 22.8572 17.7148 22.6014 17.7148 22.2858V21.7144H14.2863V22.2858C14.2863 22.6014 14.5421 22.8572 14.8577 22.8572H15.4291V29.7144H11.4291C10.4824 29.7144 9.71484 30.4819 9.71484 31.4286V32.0001H22.2863V31.4286C22.2863 30.4819 21.5187 29.7144 20.572 29.7144Z" fill="#E74040"></path>
      </g>
    </g>
    <defs>
      <clipPath id="clip0_2696_408">
        <rect width="32" height="32" fill="white"></rect>
      </clipPath>
      <clipPath id="clip1_2696_408">
        <rect width="32" height="32" fill="white"></rect>
      </clipPath>
    </defs>
  </symbol>
  <symbol fill="none" xmlns="http://www.w3.org/2000/svg" viewBox="0 0 32 32" id="icon cool-icon-n22">
    <g clip-path="url(#clip0_2696_413)">
      <g clip-path="url(#clip1_2696_413)">
        <g clip-path="url(#clip2_2696_413)">
          <path d="M11.2754 21.606H20.7247V26.3306H11.2754V21.606Z" fill="#E74040"></path>
          <path d="M15.9997 3.65186C10.2683 3.65186 5.60547 8.31478 5.60547 14.0461V28.2201C5.60547 30.3042 7.30105 31.9998 9.3852 31.9998H22.6142C24.6984 31.9998 26.394 30.3042 26.394 28.2201V14.0461C26.394 8.31472 21.7312 3.65186 15.9997 3.65186ZM10.3301 12.1562H21.6693V14.0461H19.7795V15.936H17.8896V14.0461H10.3301V12.1562ZM22.6142 28.2201H9.3852V19.7157H22.6142V28.2201Z" fill="#E74040"></path>
          <path d="M25.7042 1.83877L20.3411 0L19.5566 2.288C21.4519 2.86245 23.1545 3.88336 24.5422 5.22799L25.7042 1.83877Z" fill="#E74040"></path>
          <path d="M12.4425 2.288L11.658 0L6.29492 1.83877L7.45694 5.22799C8.8446 3.88342 10.5473 2.86245 12.4425 2.288Z" fill="#E74040"></path>
        </g>
      </g>
    </g>
    <defs>
      <clipPath id="clip0_2696_413">
        <rect width="32" height="32" fill="white"></rect>
      </clipPath>
      <clipPath id="clip1_2696_413">
        <rect width="32" height="32" fill="white"></rect>
      </clipPath>
      <clipPath id="clip2_2696_413">
        <rect width="20.7885" height="32" fill="white" transform="translate(5.60547)"></rect>
      </clipPath>
    </defs>
  </symbol>
  <symbol fill="none" xmlns="http://www.w3.org/2000/svg" viewBox="0 0 32 32" id="icon cool-icon-n23">
    <g clip-path="url(#clip0_2696_420)">
      <g clip-path="url(#clip1_2696_420)">
        <g clip-path="url(#clip2_2696_420)">
          <path d="M6.61386 25.5456H28.4113C28.478 25.5456 28.5427 25.5361 28.6048 25.5213C28.6098 25.5213 28.6139 25.5221 28.6188 25.5221C29.0841 25.5221 29.4622 25.1445 29.4622 24.6788V0.843336C29.4622 0.377812 29.0841 0 28.6188 0H28.413H7.96264H6.61504C4.37033 0 2.54446 1.82629 2.54446 4.07037C2.54446 4.10047 2.55038 4.12904 2.55331 4.15809C2.55038 6.23107 2.52468 25.2792 2.55038 27.7833C2.54878 27.8322 2.54279 27.88 2.54279 27.9295C2.54279 30.0873 4.23239 31.8538 6.35762 31.9873C6.40026 31.9939 6.44206 32.0001 6.4863 32.0001H28.6188C29.0841 32.0001 29.4621 31.6225 29.4621 31.1567V27.9823C29.4621 27.5169 29.084 27.139 28.6188 27.139C28.1535 27.139 27.7754 27.517 27.7754 27.9823V30.3135H6.61386C5.33231 30.3135 4.28617 29.296 4.23475 28.0272C4.23601 28.0045 4.24012 27.9831 4.2397 27.9601C4.23887 27.923 4.23761 27.8654 4.23678 27.7888C4.31048 26.54 5.34694 25.5456 6.61386 25.5456ZM7.1889 4.07037C7.1889 3.60485 7.56671 3.22704 8.03224 3.22704C8.49776 3.22704 8.87557 3.60485 8.87557 4.07037V21.2008C8.87557 21.6661 8.49776 22.0441 8.03224 22.0441C7.56671 22.0441 7.1889 21.666 7.1889 21.2008V4.07037Z" fill="#E74040"></path>
        </g>
      </g>
    </g>
    <defs>
      <clipPath id="clip0_2696_420">
        <rect width="32" height="32" fill="white"></rect>
      </clipPath>
      <clipPath id="clip1_2696_420">
        <rect width="32" height="32" fill="white"></rect>
      </clipPath>
      <clipPath id="clip2_2696_420">
        <rect width="26.9231" height="32.0001" fill="white" transform="translate(2.53906)"></rect>
      </clipPath>
    </defs>
  </symbol>
  
  <symbol fill="none" xmlns="http://www.w3.org/2000/svg" viewBox="0 0 10 17" id="icon arrow-next">
    <g clip-path="url(#clip0_2685_1505)">
      <path fill-rule="evenodd" clip-rule="evenodd" d="M0.680771 0.680771C0.737928 0.623469 0.805828 0.578007 0.880583 0.546987C0.955337 0.515967 1.03548 0.5 1.11641 0.5C1.19735 0.5 1.27749 0.515967 1.35224 0.546987C1.427 0.578007 1.4949 0.623469 1.55205 0.680771L8.9358 8.06452C8.9931 8.12168 9.03857 8.18958 9.06959 8.26433C9.10061 8.33909 9.11657 8.41923 9.11657 8.50016C9.11657 8.5811 9.10061 8.66123 9.06959 8.73599C9.03857 8.81074 8.9931 8.87864 8.9358 8.9358L1.55205 16.3196C1.43651 16.4351 1.27981 16.5 1.11641 16.5C0.953015 16.5 0.79631 16.4351 0.680771 16.3196C0.565232 16.204 0.500322 16.0473 0.500322 15.8839C0.500322 15.7205 0.565232 15.5638 0.680771 15.4483L7.63011 8.50016L0.680771 1.55205C0.623469 1.4949 0.578006 1.427 0.546986 1.35224C0.515967 1.27749 0.5 1.19735 0.5 1.11641C0.5 1.03548 0.515967 0.955338 0.546986 0.880583C0.578006 0.805829 0.623469 0.737928 0.680771 0.680771Z" fill="#FF6551"></path>
    </g>
    <defs>
      <clipPath id="clip0_2685_1505">
        <rect width="9" height="16" fill="white" transform="translate(0.5 0.5)"></rect>
      </clipPath>
    </defs>
  </symbol>

  <symbol fill="none" xmlns="http://www.w3.org/2000/svg" viewBox="0 0 93 93" id="video-btn-circle.btn-lg sec-">
    <path d="M0 46.3C0 20.7292 20.7292 0 46.3 0C71.8708 0 92.6 20.7292 92.6 46.3C92.6 71.8708 71.8708 92.6 46.3 92.6C20.7292 92.6 0 71.8708 0 46.3Z" fill="#FF6551"></path>
    <g clip-path="url(#clip0_2685_1523)">
      <path d="M54.5396 47.7028L39.4282 56.7265C38.1458 57.4915 36.5 56.5652 36.5 55.0229V36.9757C36.5 35.4359 38.1434 34.5071 39.4282 35.2746L54.5396 44.2982C54.8313 44.4696 55.0738 44.7173 55.2425 45.0163C55.4112 45.3153 55.5 45.6548 55.5 46.0005C55.5 46.3462 55.4112 46.6858 55.2425 46.9848C55.0738 47.2837 54.8313 47.5315 54.5396 47.7028Z" fill="white"></path>
    </g>
    <defs>
      <clipPath id="clip0_2685_1523">
        <rect width="19" height="23" fill="white" transform="translate(36.8008 34.7998)"></rect>
      </clipPath>
    </defs>
  </symbol>

</svg>